HIERARCHY
ROOT hip
{
  OFFSET 0 0 0
  CHANNELS 6 Xposition Yposition Zposition Zrotation Yrotation Xrotation
  JOINT abdomen
  {
    OFFSET 0 20.6881 -0.73152
    CHANNELS 3 Zrotation Xrotation Yrotation
    JOINT chest
    {
      OFFSET 0 11.7043 -0.48768
      CHANNELS 3 Zrotation Xrotation Yrotation
      JOINT neck
      {
        OFFSET 0 22.1894 -2.19456
        CHANNELS 3 Zrotation Xrotation Yrotation
        JOINT head
        {
          OFFSET -0.24384 7.07133 1.2192
          CHANNELS 3 Zrotation Xrotation Yrotation
          JOINT leftEye
          {
            OFFSET 4.14528 8.04674 8.04672
            CHANNELS 3 Zrotation Xrotation Yrotation
            End Site
            {
              OFFSET 1 0 0
            }
          }
          JOINT rightEye
          {
            OFFSET -3.6576 8.04674 8.04672
            CHANNELS 3 Zrotation Xrotation Yrotation
            End Site
            {
              OFFSET 1 0 0
            }
          }
        }
      }
      JOINT rCollar
      {
        OFFSET -2.68224 19.2634 -4.8768
        CHANNELS 3 Zrotation Xrotation Yrotation
        JOINT rShldr
        {
          OFFSET -8.77824 -1.95073 1.46304
          CHANNELS 3 Zrotation Xrotation Yrotation
          JOINT rForeArm
          {
            OFFSET -28.1742 -1.7115 0.48768
            CHANNELS 3 Zrotation Xrotation Yrotation
            JOINT rHand
            {
              OFFSET -22.5879 0.773209 7.07136
              CHANNELS 3 Zrotation Xrotation Yrotation
              JOINT rThumb1
              {
                OFFSET -1.2192 -0.487915 3.41376
                CHANNELS 3 Zrotation Xrotation Yrotation
                JOINT rThumb2
                {
                  OFFSET -3.37035 -0.52449 3.41376
                  CHANNELS 3 Zrotation Xrotation Yrotation
                  End Site
                  {
                    OFFSET -1.78271 -1.18214 1.43049
                  }
                }
              }
              JOINT rIndex1
              {
                OFFSET -7.75947 0.938293 5.60832
                CHANNELS 3 Zrotation Xrotation Yrotation
                JOINT rIndex2
                {
                  OFFSET -2.54057 -0.884171 1.56538
                  CHANNELS 3 Zrotation Xrotation Yrotation
                  End Site
                  {
                    OFFSET -1.62519 -0.234802 1.16502
                  }
                }
              }
              JOINT rMid1
              {
                OFFSET -8.24714 1.18213 3.41376
                CHANNELS 3 Zrotation Xrotation Yrotation
                JOINT rMid2
                {
                  OFFSET -3.10165 -0.590103 1.0647
                  CHANNELS 3 Zrotation Xrotation Yrotation
                  End Site
                  {
                    OFFSET -2.48547 -0.328903 0.83742
                  }
                }
              }
              JOINT rRing1
              {
                OFFSET -8.82822 0.546677 1.51678
                CHANNELS 3 Zrotation Xrotation Yrotation
                JOINT rRing2
                {
                  OFFSET -2.60934 -0.819778 -0.0198488
                  CHANNELS 3 Zrotation Xrotation Yrotation
                  End Site
                  {
                    OFFSET -2.33842 -0.294052 0.168128
                  }
                }
              }
              JOINT rPinky1
              {
                OFFSET -8.27202 -0.0477905 -0.4584
                CHANNELS 3 Zrotation Xrotation Yrotation
                JOINT rPinky2
                {
                  OFFSET -1.82734 -0.647385 -0.700984
                  CHANNELS 3 Zrotation Xrotation Yrotation
                  End Site
                  {
                    OFFSET -1.69225 -0.51767 -0.607171
                  }
                }
              }
            }
          }
        }
      }
      JOINT lCollar
      {
        OFFSET 2.68224 19.2634 -4.8768
        CHANNELS 3 Zrotation Xrotation Yrotation
        JOINT lShldr
        {
          OFFSET 8.77824 -1.95073 1.46304
          CHANNELS 3 Zrotation Xrotation Yrotation
          JOINT lForeArm
          {
            OFFSET 28.1742 -1.7115 0.48768
            CHANNELS 3 Zrotation Xrotation Yrotation
            JOINT lHand
            {
              OFFSET 22.5879 0.773209 7.07136
              CHANNELS 3 Zrotation Xrotation Yrotation
              JOINT lThumb1
              {
                OFFSET 1.2192 -0.487915 3.41376
                CHANNELS 3 Zrotation Xrotation Yrotation
                JOINT lThumb2
                {
                  OFFSET 3.37035 -0.52449 3.41376
                  CHANNELS 3 Zrotation Xrotation Yrotation
                  End Site
                  {
                    OFFSET 1.78271 -1.18214 1.43049
                  }
                }
              }
              JOINT lIndex1
              {
                OFFSET 7.75947 0.938293 5.60832
                CHANNELS 3 Zrotation Xrotation Yrotation
                JOINT lIndex2
                {
                  OFFSET 2.54057 -0.884171 1.56538
                  CHANNELS 3 Zrotation Xrotation Yrotation
                  End Site
                  {
                    OFFSET 1.62519 -0.234802 1.16502
                  }
                }
              }
              JOINT lMid1
              {
                OFFSET 8.24714 1.18213 3.41376
                CHANNELS 3 Zrotation Xrotation Yrotation
                JOINT lMid2
                {
                  OFFSET 3.10165 -0.590103 1.0647
                  CHANNELS 3 Zrotation Xrotation Yrotation
                  End Site
                  {
                    OFFSET 2.48547 -0.328903 0.83742
                  }
                }
              }
              JOINT lRing1
              {
                OFFSET 8.82822 0.546677 1.51678
                CHANNELS 3 Zrotation Xrotation Yrotation
                JOINT lRing2
                {
                  OFFSET 2.60934 -0.819778 -0.0198488
                  CHANNELS 3 Zrotation Xrotation Yrotation
                  End Site
                  {
                    OFFSET 2.33842 -0.294052 0.168128
                  }
                }
              }
              JOINT lPinky1
              {
                OFFSET 8.27202 -0.0477905 -0.4584
                CHANNELS 3 Zrotation Xrotation Yrotation
                JOINT lPinky2
                {
                  OFFSET 1.82734 -0.647385 -0.700984
                  CHANNELS 3 Zrotation Xrotation Yrotation
                  End Site
                  {
                    OFFSET 1.69225 -0.51767 -0.607171
                  }
                }
              }
            }
          }
        }
      }
    }
  }
  JOINT rButtock
  {
    OFFSET -8.77824 4.35084 1.2192
    CHANNELS 3 Zrotation Xrotation Yrotation
    JOINT rThigh
    {
      OFFSET 0 -1.70687 -2.19456
      CHANNELS 3 Zrotation Xrotation Yrotation
      JOINT rShin
      {
        OFFSET 0 -36.8199 0.73152
        CHANNELS 3 Zrotation Xrotation Yrotation
        JOINT rFoot
        {
          OFFSET 0.73152 -45.1104 -5.12064
          CHANNELS 3 Zrotation Xrotation Yrotation
          End Site
          {
            OFFSET -1.1221 -3.69964 12.103
          }
        }
      }
    }
  }
  JOINT lButtock
  {
    OFFSET 8.77824 4.35084 1.2192
    CHANNELS 3 Zrotation Xrotation Yrotation
    JOINT lThigh
    {
      OFFSET 0 -1.70687 -2.19456
      CHANNELS 3 Zrotation Xrotation Yrotation
      JOINT lShin
      {
        OFFSET 0 -36.8199 0.73152
        CHANNELS 3 Zrotation Xrotation Yrotation
        JOINT lFoot
        {
          OFFSET -0.73152 -45.1104 -5.12064
          CHANNELS 3 Zrotation Xrotation Yrotation
          End Site
          {
            OFFSET 1.1221 -3.69964 12.103
          }
        }
      }
    }
  }
}
MOTION
Frames:	5
Frame Time:	0.03333
1.957859972389997 59.94870066642761 26.772999961394817 -3.6123476028442383 -20.094297409057617 6.8653106689453125 -2.1687448024749756 15.56448745727539 12.455111503601074 -1.192247986793518 -11.61271858215332 3.2152419090270996 -4.253108978271484 15.336294174194336 -2.1060361862182617 8.963796615600586 -35.116493225097656 -1.375544548034668 -0.0 0.0 -0.0 -0.0 0.0 -0.0 -0.0 0.0 -0.0 -10.223100662231445 29.307100296020508 103.8119888305664 -24.925796508789062 -48.105384826660156 100.20698547363281 -3.6852846145629883 -46.594791412353516 -8.545281410217285 -0.0 0.0 -0.0 -0.0 0.0 -0.0 -0.0 0.0 -0.0 7.730876445770264 5.474894046783447 0.41732466220855713 -0.0 0.0 -0.0 2.9054994583129883 0.9650753736495972 0.10300876200199127 -0.0 0.0 -0.0 10.278595924377441 0.7317469120025635 0.026285571977496147 -0.0 0.0 -0.0 2.221662998199463 -0.7335850596427917 -0.20831838250160217 -0.0 0.0 -0.0 -49.67230224609375 40.50849533081055 -50.62310028076172 24.948596954345703 -20.9862117767334 -52.76799392700195 0.013769552111625671 -3.34883975982666 0.47103366255760193 -0.0 0.0 -0.0 -0.0 0.0 -0.0 -0.0 0.0 -0.0 -7.730876445770264 5.474894046783447 -0.41732466220855713 -0.0 0.0 -0.0 -2.9054994583129883 0.9650753736495972 -0.10300876200199127 -0.0 0.0 -0.0 -10.278595924377441 0.7317469120025635 -0.026285571977496147 -0.0 0.0 -0.0 -2.221662998199463 -0.7335850596427917 0.20831838250160217 -0.0 0.0 -0.0 -14.656126976013184 -35.29689407348633 -14.38300609588623 -162.96351623535156 86.48597717285156 164.26832580566406 -1.2467001676559448 -3.322526454925537 -14.59580135345459 -0.0 0.0 -0.0 30.61410903930664 -53.914676666259766 42.68339538574219 2.616726875305176 72.97920989990234 -2.9394049644470215 6.335395812988281 -7.152073383331299 24.4424991607666
2.291109983707429 59.79689955711365 28.864000004250556 -2.346405267715454 -17.392908096313477 5.8311872482299805 -2.9399893283843994 16.18760108947754 12.209505081176758 -1.354957103729248 -11.77049732208252 3.1147117614746094 -4.43068265914917 15.256307601928711 -2.8218724727630615 8.55794906616211 -34.7200927734375 -2.968596935272217 -0.0 0.0 -0.0 -0.0 0.0 -0.0 -0.0 0.0 -0.0 -10.52990436553955 22.404098510742188 106.51899719238281 -24.616008758544922 -48.52988815307617 101.26299285888672 -3.5833957195281982 -46.12299346923828 -8.404464721679688 -0.0 0.0 -0.0 -0.0 0.0 -0.0 -0.0 0.0 -0.0 7.730876445770264 5.474894046783447 0.41732466220855713 -0.0 0.0 -0.0 2.9054994583129883 0.9650753736495972 0.10300876200199127 -0.0 0.0 -0.0 10.278595924377441 0.7317469120025635 0.026285571977496147 -0.0 0.0 -0.0 2.221662998199463 -0.7335850596427917 -0.20831838250160217 -0.0 0.0 -0.0 -44.149497985839844 42.919490814208984 -57.054405212402344 24.078493118286133 -19.248504638671875 -49.819190979003906 0.03560887649655342 -5.379143714904785 0.7580052018165588 -0.0 0.0 -0.0 -0.0 0.0 -0.0 -0.0 0.0 -0.0 -7.730876445770264 5.474894046783447 -0.41732466220855713 -0.0 0.0 -0.0 -2.9054994583129883 0.9650753736495972 -0.10300876200199127 -0.0 0.0 -0.0 -10.278595924377441 0.7317469120025635 -0.026285571977496147 -0.0 0.0 -0.0 -2.221662998199463 -0.7335850596427917 0.20831838250160217 -0.0 0.0 -0.0 -14.593408584594727 -40.20119857788086 -16.490314483642578 -170.5736541748047 83.17564392089844 171.68701171875 -2.007640838623047 -4.72055196762085 -15.416187286376953 -0.0 0.0 -0.0 26.065898895263672 -53.18439483642578 39.62129211425781 2.649329423904419 73.18842315673828 -3.001121759414673 6.644518852233887 -8.550482749938965 23.560401916503906
2.5981599817896495 59.62179899215698 31.09900002600625 -1.3100172281265259 -14.463700294494629 4.9474077224731445 -3.4142749309539795 16.729001998901367 11.840291976928711 -1.485945463180542 -11.983698844909668 2.997427225112915 -4.5379252433776855 15.163797378540039 -3.536181688308716 8.097356796264648 -34.20490264892578 -4.577913284301758 -0.0 0.0 -0.0 -0.0 0.0 -0.0 -0.0 0.0 -0.0 -9.964529037475586 16.711091995239258 107.59999084472656 -24.643108367919922 -48.52268981933594 101.18098449707031 -3.5226027965545654 -45.74650192260742 -8.302018165588379 -0.0 0.0 -0.0 -0.0 0.0 -0.0 -0.0 0.0 -0.0 7.730876445770264 5.474894046783447 0.41732466220855713 -0.0 0.0 -0.0 2.9054994583129883 0.9650753736495972 0.10300876200199127 -0.0 0.0 -0.0 10.278595924377441 0.7317469120025635 0.026285571977496147 -0.0 0.0 -0.0 2.221662998199463 -0.7335850596427917 -0.20831838250160217 -0.0 0.0 -0.0 -37.11690139770508 44.91199493408203 -64.79820251464844 23.02630615234375 -17.38038444519043 -46.6620979309082 0.05977960675954819 -6.95975923538208 0.9830289483070374 -0.0 0.0 -0.0 -0.0 0.0 -0.0 -0.0 0.0 -0.0 -7.730876445770264 5.474894046783447 -0.41732466220855713 -0.0 0.0 -0.0 -2.9054994583129883 0.9650753736495972 -0.10300876200199127 -0.0 0.0 -0.0 -10.278595924377441 0.7317469120025635 -0.026285571977496147 -0.0 0.0 -0.0 -2.221662998199463 -0.7335850596427917 0.20831838250160217 -0.0 0.0 -0.0 -15.090407371520996 -45.29060363769531 -19.591402053833008 -172.43026733398438 81.03425598144531 173.33792114257812 -2.790555477142334 -5.6867756843566895 -16.67029571533203 -0.0 0.0 -0.0 21.933244705200195 -52.14630889892578 36.80897903442383 2.6887047290802 73.47927856445312 -3.1065924167633057 6.996293067932129 -10.258010864257812 22.590694427490234
2.868469979512156 59.41789746284485 33.48600008757785 -0.4437583386898041 -11.205394744873047 4.069676876068115 -3.639124631881714 17.24940299987793 11.318008422851562 -1.5351656675338745 -12.267098426818848 2.8545913696289062 -4.612832546234131 15.172403335571289 -4.2457404136657715 7.757297515869141 -33.69599533081055 -6.137547492980957 -0.0 0.0 -0.0 -0.0 0.0 -0.0 -0.0 0.0 -0.0 -8.835911750793457 12.485517501831055 107.4579849243164 -25.016807556152344 -47.97269821166992 99.88848876953125 -3.48087477684021 -45.635501861572266 -8.261697769165039 -0.0 0.0 -0.0 -0.0 0.0 -0.0 -0.0 0.0 -0.0 7.730876445770264 5.474894046783447 0.41732466220855713 -0.0 0.0 -0.0 2.9054994583129883 0.9650753736495972 0.10300876200199127 -0.0 0.0 -0.0 10.278595924377441 0.7317469120025635 0.026285571977496147 -0.0 0.0 -0.0 2.221662998199463 -0.7335850596427917 -0.20831838250160217 -0.0 0.0 -0.0 -28.179391860961914 46.30610275268555 -74.2777099609375 21.814605712890625 -15.501997947692871 -43.219398498535156 0.10250233113765717 -8.169608116149902 1.1575522422790527 -0.0 0.0 -0.0 -0.0 0.0 -0.0 -0.0 0.0 -0.0 -7.730876445770264 5.474894046783447 -0.41732466220855713 -0.0 0.0 -0.0 -2.9054994583129883 0.9650753736495972 -0.10300876200199127 -0.0 0.0 -0.0 -10.278595924377441 0.7317469120025635 -0.026285571977496147 -0.0 0.0 -0.0 -2.221662998199463 -0.7335850596427917 0.20831838250160217 -0.0 0.0 -0.0 -15.87848949432373 -50.40290832519531 -22.928693771362305 -172.6344451904297 80.51808166503906 173.3234405517578 -3.3777568340301514 -6.286263942718506 -16.712400436401367 -0.0 0.0 -0.0 18.2376651763916 -50.7423210144043 34.154937744140625 2.7369630336761475 73.88609313964844 -3.259556293487549 7.364392280578613 -12.313188552856445 21.529699325561523
3.103269974599243 59.197598695755005 36.01200004341081 0.36502423882484436 -7.530498504638672 3.088364601135254 -3.7685861587524414 17.721006393432617 10.512605667114258 -1.3644438982009888 -12.587101936340332 2.6597750186920166 -4.770598411560059 15.221108436584473 -4.924144268035889 7.5410661697387695 -33.0463981628418 -7.598482608795166 -0.0 0.0 -0.0 -0.0 0.0 -0.0 -0.0 0.0 -0.0 -7.523244857788086 9.846961975097656 106.40399169921875 -25.532794952392578 -47.124691009521484 97.98639678955078 -3.4901442527770996 -45.55355453491211 -8.249191284179688 -0.0 0.0 -0.0 -0.0 0.0 -0.0 -0.0 0.0 -0.0 7.730876445770264 5.474894046783447 0.41732466220855713 -0.0 0.0 -0.0 2.9054994583129883 0.9650753736495972 0.10300876200199127 -0.0 0.0 -0.0 10.278595924377441 0.7317469120025635 0.026285571977496147 -0.0 0.0 -0.0 2.221662998199463 -0.7335850596427917 -0.20831838250160217 -0.0 0.0 -0.0 -18.133808135986328 46.6537971496582 -84.45899963378906 20.580991744995117 -13.760491371154785 -40.10969543457031 0.08465168625116348 -8.271260261535645 1.1707019805908203 -0.0 0.0 -0.0 -0.0 0.0 -0.0 -0.0 0.0 -0.0 -7.730876445770264 5.474894046783447 -0.41732466220855713 -0.0 0.0 -0.0 -2.9054994583129883 0.9650753736495972 -0.10300876200199127 -0.0 0.0 -0.0 -10.278595924377441 0.7317469120025635 -0.026285571977496147 -0.0 0.0 -0.0 -2.221662998199463 -0.7335850596427917 0.20831838250160217 -0.0 0.0 -0.0 -17.661733627319336 -55.04779815673828 -26.81325340270996 -171.73245239257812 81.5126953125 172.21337890625 -3.6807165145874023 -6.659580707550049 -15.697098731994629 -0.0 0.0 -0.0 14.914060592651367 -48.95848083496094 31.651884078979492 2.7691824436187744 74.26811981201172 -3.430666446685791 7.664287090301514 -14.565594673156738 20.39799690246582
